name C:\Users\u0101727\Documents\MyRepositories\upper-imu-dc\OpenSim\subject0\MA\MA_Splines\angle_in_n3_dof6_0.mot
datacolumns 7
datarows 60
range 5.47000000 6.06000000
endheader 
time	clav_prot	clav_elev	scapula_abduction	scapula_elevation	scapula_upward_rot	scapula_winging	
          5.47000000	        -44.34577705	         16.86370047	        -30.88730313	          7.08700750	          8.23102828	          6.73993887	
          5.48000000	        -30.62585626	         16.86370047	        -30.88730313	          7.08700750	          8.23102828	          6.73993887	
          5.49000000	        -16.90593547	         16.86370047	        -30.88730313	          7.08700750	          8.23102828	          6.73993887	
          5.50000000	        -44.34577705	         -7.65248351	         -9.79969714	          7.08700750	          8.23102828	          6.73993887	
          5.51000000	        -30.62585626	         -7.65248351	         -9.79969714	          7.08700750	          8.23102828	          6.73993887	
          5.52000000	        -16.90593547	         -7.65248351	         -9.79969714	          7.08700750	          8.23102828	          6.73993887	
          5.53000000	        -44.34577705	          4.60560848	         -9.79969714	          7.08700750	          8.23102828	          6.73993887	
          5.54000000	        -30.62585626	          4.60560848	         -9.79969714	          7.08700750	          8.23102828	          6.73993887	
          5.55000000	        -16.90593547	          4.60560848	         -9.79969714	          7.08700750	          8.23102828	          6.73993887	
          5.56000000	        -44.34577705	         16.86370047	         -9.79969714	          7.08700750	          8.23102828	          6.73993887	
          5.57000000	        -30.62585626	         16.86370047	         -9.79969714	          7.08700750	          8.23102828	          6.73993887	
          5.58000000	        -16.90593547	         16.86370047	         -9.79969714	          7.08700750	          8.23102828	          6.73993887	
          5.59000000	        -44.34577705	         -7.65248351	         11.28790885	          7.08700750	          8.23102828	          6.73993887	
          5.60000000	        -30.62585626	         -7.65248351	         11.28790885	          7.08700750	          8.23102828	          6.73993887	
          5.61000000	        -16.90593547	         -7.65248351	         11.28790885	          7.08700750	          8.23102828	          6.73993887	
          5.62000000	        -44.34577705	          4.60560848	         11.28790885	          7.08700750	          8.23102828	          6.73993887	
          5.63000000	        -30.62585626	          4.60560848	         11.28790885	          7.08700750	          8.23102828	          6.73993887	
          5.64000000	        -16.90593547	          4.60560848	         11.28790885	          7.08700750	          8.23102828	          6.73993887	
          5.65000000	        -44.34577705	         16.86370047	         11.28790885	          7.08700750	          8.23102828	          6.73993887	
          5.66000000	        -30.62585626	         16.86370047	         11.28790885	          7.08700750	          8.23102828	          6.73993887	
          5.67000000	        -16.90593547	         16.86370047	         11.28790885	          7.08700750	          8.23102828	          6.73993887	
          5.68000000	        -44.34577705	         -7.65248351	        -30.88730313	         -7.82036939	         46.86245639	          6.73993887	
          5.69000000	        -30.62585626	         -7.65248351	        -30.88730313	         -7.82036939	         46.86245639	          6.73993887	
          5.70000000	        -16.90593547	         -7.65248351	        -30.88730313	         -7.82036939	         46.86245639	          6.73993887	
          5.71000000	        -44.34577705	          4.60560848	        -30.88730313	         -7.82036939	         46.86245639	          6.73993887	
          5.72000000	        -30.62585626	          4.60560848	        -30.88730313	         -7.82036939	         46.86245639	          6.73993887	
          5.73000000	        -16.90593547	          4.60560848	        -30.88730313	         -7.82036939	         46.86245639	          6.73993887	
          5.74000000	        -44.34577705	         16.86370047	        -30.88730313	         -7.82036939	         46.86245639	          6.73993887	
          5.75000000	        -30.62585626	         16.86370047	        -30.88730313	         -7.82036939	         46.86245639	          6.73993887	
          5.76000000	        -16.90593547	         16.86370047	        -30.88730313	         -7.82036939	         46.86245639	          6.73993887	
          5.77000000	        -44.34577705	         -7.65248351	         -9.79969714	         -7.82036939	         46.86245639	          6.73993887	
          5.78000000	        -30.62585626	         -7.65248351	         -9.79969714	         -7.82036939	         46.86245639	          6.73993887	
          5.79000000	        -16.90593547	         -7.65248351	         -9.79969714	         -7.82036939	         46.86245639	          6.73993887	
          5.80000000	        -44.34577705	          4.60560848	         -9.79969714	         -7.82036939	         46.86245639	          6.73993887	
          5.81000000	        -30.62585626	          4.60560848	         -9.79969714	         -7.82036939	         46.86245639	          6.73993887	
          5.82000000	        -16.90593547	          4.60560848	         -9.79969714	         -7.82036939	         46.86245639	          6.73993887	
          5.83000000	        -44.34577705	         16.86370047	         -9.79969714	         -7.82036939	         46.86245639	          6.73993887	
          5.84000000	        -30.62585626	         16.86370047	         -9.79969714	         -7.82036939	         46.86245639	          6.73993887	
          5.85000000	        -16.90593547	         16.86370047	         -9.79969714	         -7.82036939	         46.86245639	          6.73993887	
          5.86000000	        -44.34577705	         -7.65248351	         11.28790885	         -7.82036939	         46.86245639	          6.73993887	
          5.87000000	        -30.62585626	         -7.65248351	         11.28790885	         -7.82036939	         46.86245639	          6.73993887	
          5.88000000	        -16.90593547	         -7.65248351	         11.28790885	         -7.82036939	         46.86245639	          6.73993887	
          5.89000000	        -44.34577705	          4.60560848	         11.28790885	         -7.82036939	         46.86245639	          6.73993887	
          5.90000000	        -30.62585626	          4.60560848	         11.28790885	         -7.82036939	         46.86245639	          6.73993887	
          5.91000000	        -16.90593547	          4.60560848	         11.28790885	         -7.82036939	         46.86245639	          6.73993887	
          5.92000000	        -44.34577705	         16.86370047	         11.28790885	         -7.82036939	         46.86245639	          6.73993887	
          5.93000000	        -30.62585626	         16.86370047	         11.28790885	         -7.82036939	         46.86245639	          6.73993887	
          5.94000000	        -16.90593547	         16.86370047	         11.28790885	         -7.82036939	         46.86245639	          6.73993887	
          5.95000000	        -44.34577705	         -7.65248351	        -30.88730313	         -0.36668095	         46.86245639	          6.73993887	
          5.96000000	        -30.62585626	         -7.65248351	        -30.88730313	         -0.36668095	         46.86245639	          6.73993887	
          5.97000000	        -16.90593547	         -7.65248351	        -30.88730313	         -0.36668095	         46.86245639	          6.73993887	
          5.98000000	        -44.34577705	          4.60560848	        -30.88730313	         -0.36668095	         46.86245639	          6.73993887	
          5.99000000	        -30.62585626	          4.60560848	        -30.88730313	         -0.36668095	         46.86245639	          6.73993887	
          6.00000000	        -16.90593547	          4.60560848	        -30.88730313	         -0.36668095	         46.86245639	          6.73993887	
          6.01000000	        -44.34577705	         16.86370047	        -30.88730313	         -0.36668095	         46.86245639	          6.73993887	
          6.02000000	        -30.62585626	         16.86370047	        -30.88730313	         -0.36668095	         46.86245639	          6.73993887	
          6.03000000	        -16.90593547	         16.86370047	        -30.88730313	         -0.36668095	         46.86245639	          6.73993887	
          6.04000000	        -44.34577705	         -7.65248351	         -9.79969714	         -0.36668095	         46.86245639	          6.73993887	
          6.05000000	        -30.62585626	         -7.65248351	         -9.79969714	         -0.36668095	         46.86245639	          6.73993887	
          6.06000000	        -16.90593547	         -7.65248351	         -9.79969714	         -0.36668095	         46.86245639	          6.73993887	
